<?xml version="1.0" encoding="utf-8"?>
<!-- Generator: Adobe Illustrator 24.0.0, SVG Export Plug-In . SVG Version: 6.00 Build 0)  -->
<svg version="1.1" id="Layer_1" xmlns="http://www.w3.org/2000/svg" xmlns:xlink="http://www.w3.org/1999/xlink" x="0px" y="0px"
	 viewBox="0 0 207.6 35" style="enable-background:new 0 0 207.6 35;" xml:space="preserve">
<title>Untitled-3</title>
<path d="M65.5,22.4c-0.1,0-0.2,0-0.2-0.1c-0.2-0.1-0.4-0.2-0.7-0.2H54.2c-0.4,0-0.8,0-1.2,0c-0.6,0-0.9-0.4-1.2-0.8
	c-0.1-0.1-0.1-0.3,0.1-0.4c0.1-0.1,0.1-0.1,0.2-0.2c0.1-0.2,0.2-0.4,0.4-0.6c0.4-0.3,0.7-0.7,1-1.1c0.1-0.2,0.3-0.3,0.3-0.5
	c0.1-0.4,0-0.8-0.4-0.9c-0.1,0-0.2-0.1-0.3-0.1c-0.3,0-0.7,0-1,0.3s-0.5,0.5-0.8,0.8s-0.3,0.6-0.7,0.6c0,0-0.1,0-0.1,0.1
	c-0.1,0.2-0.3,0.2-0.5,0.2s-0.4,0-0.6-0.2c0,0-0.1-0.1-0.2-0.1c-0.2,0-0.3-0.1-0.4-0.2c-0.2-0.2-0.4-0.4-0.6-0.4
	c-0.1,0-0.1-0.1-0.2-0.1c-0.3-0.2-0.6-0.5-0.8-0.8c-0.3-0.2-0.4-0.5-0.4-0.8c0-0.1,0-0.3,0-0.4s0-0.2,0.1-0.2
	c0.3-0.2,0.2-0.6,0.5-0.8c0.1-0.1,0.1-0.2,0.1-0.3c0.2-0.3,0.4-0.6,0.6-0.9c0.1-0.2,0.2-0.4,0.3-0.6c0,0,0-0.1,0.1-0.1
	c0.1-0.1,0.2-0.2,0.2-0.3c0-0.1,0-0.2,0.1-0.2c0.3-0.2,0.5-0.5,0.6-0.9c0,0,0-0.1,0.1-0.1c0.1-0.1,0.2-0.2,0.2-0.3
	c0-0.1,0-0.2,0.1-0.2c0.2-0.3,0.3-0.6,0.6-0.9c0.1-0.1,0.2-0.2,0.3-0.4s0.4-0.5,0.4-0.8c0,0,0.1-0.1,0.1-0.1C50.9,9,51,9,51,8.9
	c0-0.3,0-0.5,0-0.8c0-0.4-0.3-0.7-0.7-0.7c0,0-0.1,0-0.1,0c-0.3,0-0.6,0.3-0.7,0.6C49.3,8.4,49,8.5,49,8.9C49,8.9,49,9,48.9,9
	s-0.4,0.3-0.4,0.5c-0.1,0.4-0.3,0.6-0.4,0.9c-0.1,0.2-0.2,0.4-0.3,0.6c-0.2,0.2-0.4,0.5-0.5,0.9c0,0.1-0.1,0.1-0.1,0.2
	c-0.1,0-0.1,0.1-0.1,0.2c0,0.4-0.3,0.6-0.4,0.9s-0.4,0.6-0.6,0.9c-0.1,0.2-0.2,0.3-0.3,0.6c0,0,0,0.1-0.1,0.1
	c-0.2,0.1-0.3,0.4-0.4,0.5s-0.5,0.5-1,0.5c-0.2,0-0.4,0-0.6,0s-0.2,0-0.3-0.1s-0.2-0.2-0.3-0.2s-0.2,0-0.2-0.1s-0.3-0.2-0.5-0.2
	c-0.1,0-0.2-0.1-0.2-0.1c-0.1-0.1-0.1-0.1-0.2-0.1c-0.3,0-0.6-0.2-0.8-0.4c-0.2-0.3-0.3-0.6-0.4-0.9c0-0.1,0-0.2,0-0.2
	s0.1-0.4,0.2-0.6s0-0.5,0.1-0.7c0.3-0.3,0.2-0.7,0.2-1s-0.2-0.6-0.3-0.8s-0.7-0.1-0.8,0s-0.5,0.3-0.4,0.7c0,0,0,0.1-0.1,0.1
	c-0.2,0.1-0.3,0.3-0.2,0.5c0,0.5-0.3,0.8-0.3,1.2c0,0-0.1,0.1-0.1,0.1c-0.1,0.1-0.2,0.2-0.2,0.3c-0.1,0.3-0.2,0.3-0.5,0.3
	c-0.8,0-1.6,0-2.3,0c-0.2,0-0.4,0-0.6-0.2c0,0-0.1,0-0.1,0c-0.2,0-0.5-0.1-0.6-0.3c-0.3-0.2-0.5-0.6-0.5-1c0-0.1,0-0.2,0-0.3
	c0-1.9,0-3.8,0-5.7c0-1.3,0-2.6,0-3.8c0-0.1,0.1-0.3-0.1-0.4c-0.1-0.1-0.2-0.3-0.2-0.4c0-0.3-0.3-0.4-0.4-0.5
	c-0.1-0.1-0.4-0.1-0.5,0c-0.2,0.2-0.4,0.3-0.3,0.6c0,0.1,0,0.1-0.1,0.2c-0.2,0.1-0.2,0.3-0.2,0.6c0,3,0,6,0,9c0,0.4,0,0.8,0,1.1
	c0,0.2-0.1,0.4-0.2,0.5c-0.1,0.1-0.2,0.2-0.3,0.3c-0.1,0.2-0.3,0.2-0.5,0.2s-0.3,0.3-0.5,0.3c-0.9,0-1.7,0.1-2.6,0
	c-0.2,0-0.4-0.1-0.4-0.3c0-0.1-0.1-0.2-0.1-0.2c-0.2-0.1-0.2-0.2-0.2-0.4s0-0.2,0-0.2c-0.2-0.2-0.3-0.5-0.2-0.8c0-0.1,0-0.3-0.1-0.4
	c-0.1-0.1-0.2-0.2-0.2-0.3c0-0.3-0.3-0.5-0.5-0.6c-0.4-0.2-0.8,0-1,0.3c0,0,0,0,0,0c-0.1,0.4-0.1,0.9,0.1,1.3
	c0.1,0.2,0.2,0.4,0.2,0.6c0,0.2,0,0.4,0.1,0.5c0.2,0.3,0.2,0.7,0,1c-0.1,0.4-0.5,0.6-0.9,0.7c-0.1,0-0.3,0-0.3,0.1s-0.2,0.2-0.4,0.2
	c-0.3,0.1-0.5,0.4-0.9,0.4l0,0c-0.1,0.2-0.2,0.2-0.4,0.2H22c-0.2,0-0.3-0.1-0.4-0.2c-0.1-0.1-0.2-0.3-0.4-0.4
	c-0.2-0.2-0.4-0.5-0.5-0.8c0,0,0-0.1-0.1-0.1c-0.2-0.1-0.2-0.3-0.3-0.5c0-0.1-0.1-0.1-0.1-0.1c-0.2-0.2-0.4-0.4-0.5-0.7
	c0-0.1,0-0.2-0.1-0.2s-0.2-0.2-0.2-0.4s0-0.2,0-0.2c-0.3-0.2-0.3-0.6-0.5-0.8c-0.1-0.1-0.3-0.2-0.3-0.4c-0.1-0.3-0.4-0.5-0.4-0.9
	c0,0,0-0.1-0.1-0.1S18.1,9.8,18,9.6s0-0.2-0.1-0.2c-0.4-0.3-0.5-0.8-0.8-1.2c-0.1-0.2-0.2-0.4-0.4-0.6c-0.2-0.2-0.4-0.3-0.7-0.2
	c-0.1,0-0.5,0.3-0.5,0.5c-0.2,0.6,0.2,1.1,0.4,1.7c0,0,0,0,0.1,0s0.1,0.1,0.1,0.2s0,0.2,0.1,0.2c0.3,0.2,0.3,0.7,0.5,0.9
	c0.2,0.2,0.3,0.4,0.4,0.7c0,0,0,0,0,0.1c0.2,0.2,0.3,0.6,0.5,0.8c0.2,0.2,0.3,0.4,0.4,0.7c0.3,0.2,0.2,0.6,0.5,0.8
	c0.1,0.3,0.3,0.6,0.5,0.9c0.2,0.2,0.2,0.5,0.4,0.7s0,0.4,0.3,0.5c0,0,0,0.1,0,0.1c0,0.4,0.2,0.8-0.2,1.1s-0.5,0.5-0.8,0.8
	s-0.4,0.3-0.6,0.4s-0.5,0.5-0.9,0.6c-0.1,0-0.1,0.1-0.1,0.1s-0.8,0.2-0.9,0c-0.1-0.1-0.3-0.2-0.4-0.2c-0.1,0-0.1,0-0.2-0.1
	c-0.3-0.4-0.6-0.7-1-1c-0.2-0.1-0.3-0.4-0.5-0.4c-0.3,0-0.7,0-1,0c-0.2,0-0.3,0.1-0.3,0.3c-0.1,0.4,0,0.9,0.4,1.2
	c0.2,0.3,0.5,0.5,0.7,0.8c0.1,0.1,0.2,0.2,0.3,0.3c0.2,0.3,0.4,0.6,0.6,0.9c0.1,0.1,0.1,0.3,0,0.5c0,0-0.1,0.1-0.1,0.1
	c-0.1,0.3-0.4,0.5-0.8,0.5c-0.2,0-0.5,0-0.7,0H2.1c-0.2,0-0.3,0-0.4,0.1c-0.1,0.1-0.3,0.2-0.5,0.2c-0.2,0.1-0.4,0.3-0.5,0.5
	c-0.1,0.3,0.2,0.7,0.5,0.7c0,0,0,0,0,0c0.1,0,0.2,0,0.2,0.1c0.2,0.1,0.4,0.2,0.7,0.1c3.6,0,7.2,0,10.7,0c0.7,0.1,1.4,0,2-0.1
	c0.3-0.1,0.7-0.1,0.9-0.4s0.3-0.3,0.4-0.5c0.1-0.3,0.3-0.5,0.5-0.7c0.3-0.2,0.5-0.4,0.8-0.7c0.2-0.3,0.5-0.6,0.8-0.8l0.8-0.6
	c0.2-0.1,0.4-0.4,0.7-0.4c0,0,0.1,0,0.1-0.1c0.3-0.4,0.7-0.7,1.2-0.8c0.1,0,0.1-0.1,0.1-0.1c0.2-0.1,0.3-0.4,0.6-0.4
	s0.5-0.4,0.9-0.4c0,0,0,0,0.1,0c0.1-0.2,0.2-0.2,0.4-0.2s0.2,0,0.2-0.1c0.1-0.2,0.3-0.2,0.5-0.2s0.1,0,0.1-0.1
	C24,17,24.2,17,24.4,17c0.1,0,0.1,0,0.2-0.1c0.1-0.2,0.3-0.2,0.5-0.2s0.3,0,0.3-0.1c0.2-0.1,0.5-0.2,0.7-0.2c0.1,0,0.2,0,0.3-0.1
	s0.3-0.2,0.4-0.2s0.5,0,0.6-0.2c0-0.1,0.2-0.1,0.2-0.1h0.6c0.1,0,0.2,0,0.3-0.1s0.3-0.2,0.5-0.2h0.7c0.2,0,0.5,0,0.6-0.2
	c0-0.1,0.1-0.1,0.2-0.1c0.5,0,0.9-0.1,1.4-0.1c1.4,0,2.7,0,4.1,0.1c0.1,0,0.2,0,0.3,0.1c0.2,0.2,0.4,0.2,0.6,0.2s0.5,0,0.7,0
	s0.5-0.1,0.7,0.2c0,0.1,0.2,0.1,0.2,0.1h0.6c0.1,0,0.2,0,0.2,0.1c0.1,0.2,0.4,0.2,0.6,0.2s0.3,0,0.4,0.1s0.2,0.2,0.4,0.2
	c0.2,0,0.4,0,0.6,0.1c0.1,0.1,0.3,0.2,0.4,0.1c0.4,0,0.7,0.4,1.1,0.4l0,0c0.1,0.2,0.2,0.2,0.4,0.2s0.2,0,0.2,0.1
	c0.1,0.2,0.2,0.2,0.4,0.2c0.1,0,0.2,0.1,0.2,0.1c0,0.1,0.1,0.1,0.2,0.1c0.4,0,0.6,0.4,0.9,0.4c0,0,0.1,0.1,0.1,0.1
	c0.2,0.2,0.4,0.5,0.8,0.5c0,0,0.1,0,0.1,0.1c0.1,0.2,0.4,0.3,0.6,0.4s0.2,0.3,0.3,0.3c0.2,0.1,0.4,0.2,0.6,0.4
	c0.5,0.4,1,0.7,1.4,1.2c0.2,0,0.2,0.3,0.4,0.4s0.5,0.6,0.8,0.8s0.3,0.6,0.6,0.8s0.6,0.6,1,0.6c0.1,0,0.1,0,0.2,0.1
	c0.2,0.1,0.4,0.2,0.6,0.1h6c1.9,0,3.7,0,5.6,0c0.4,0.1,0.8,0,1.1-0.2c0,0,0.1,0,0.1,0c0.3,0,0.6-0.3,0.6-0.6
	C66.1,22.8,65.9,22.5,65.5,22.4z" style="fill: white;"/>
<path d="M41.5,28.8c-0.4-0.1-0.8-0.1-1.2,0c-0.1,0-0.2,0-0.2,0.1c-0.3,0.3-0.6,0.6-0.9,0.9c-0.3,0.4-0.7,0.6-1.1,0.8
	c0,0-0.1,0-0.1,0c-0.4,0.3-0.9,0.6-1.4,0.6h-0.5c-0.1,0-0.2,0-0.3,0.1c-0.1,0.1-0.3,0.2-0.5,0.2c-1.1,0.1-2.2,0.1-3.3,0
	c-0.2,0-0.3,0-0.5-0.1c-0.2-0.1-0.4-0.2-0.7-0.2c-0.2,0-0.4,0-0.6-0.1c-0.1-0.1-0.2-0.1-0.4-0.1c-0.2,0-0.5,0-0.7-0.3
	c0,0-0.1,0-0.1,0c-0.2,0-0.3-0.1-0.5-0.2c-0.2-0.1-0.3-0.3-0.5-0.4c-0.3-0.1-0.5-0.3-0.7-0.6c-0.1-0.2-0.3-0.4-0.4-0.6
	c-0.1-0.1-0.2-0.2-0.2-0.4c-0.1-0.8-0.1-1.5,0-2.3c0-0.1,0-0.2,0.1-0.3c0.3-0.3,0.5-0.5,0.6-0.9c0.1-0.2,0.2-0.3,0.4-0.4
	c0.3-0.1,0.5-0.3,0.7-0.4c0.4-0.3,0.8-0.5,1.2-0.6c0.1,0,0.2,0,0.3-0.1c0.1-0.2,0.3-0.2,0.5-0.2s0.4,0,0.7,0s0.4,0,0.6-0.2
	s0.2-0.1,0.3-0.1c0.8,0,1.7,0,2.5,0c0.1,0,0.2,0,0.2,0c0.2,0.3,0.4,0.2,0.7,0.2h0.7c0.1,0,0.2,0,0.2,0.1c0.1,0.2,0.3,0.2,0.5,0.2
	c0.4,0.1,0.7,0.2,1,0.4c0.5,0.4,0.9,0.9,1.3,1.4c0.2,0.3,0.6,0.5,1,0.5c0.2,0,0.4,0,0.6,0c0.3,0,0.6-0.1,0.7-0.3
	c0.2-0.3,0.2-0.7,0-1c-0.2-0.2-0.3-0.4-0.4-0.6c-0.1-0.2-0.2-0.4-0.4-0.6c-0.3-0.3-0.5-0.6-1-0.7c0,0-0.1,0-0.1-0.1
	c-0.2-0.3-0.5-0.5-0.8-0.6c-0.2-0.1-0.5-0.2-0.7-0.3c-0.2-0.2-0.5-0.2-0.7-0.2c-0.2,0-0.4,0-0.6-0.2c0-0.1-0.1-0.1-0.2-0.1h-0.5
	c-0.3,0-0.6,0.1-0.7-0.2c0-0.1-0.2,0-0.2,0h-3.6c-0.1,0-0.2,0-0.3,0.1c-0.1,0.1-0.2,0.2-0.4,0.1h-0.7c-0.1,0-0.2,0-0.3,0.1
	s-0.3,0.2-0.4,0.2c-0.2,0-0.4,0-0.7,0.1c-0.2,0-0.2,0.2-0.4,0.2c-0.3,0-0.6,0.4-0.9,0.4c0,0-0.1,0-0.1,0.1c-0.1,0.2-0.2,0.2-0.4,0.2
	c-0.1,0-0.1,0-0.2,0.1c-0.2,0.3-0.6,0.5-0.8,0.8c-0.3,0.3-0.6,0.7-0.7,1.1c0,0.1,0,0.1-0.1,0.1c-0.2,0.1-0.2,0.2-0.2,0.4
	s0,0.2-0.1,0.2s-0.2,0.3-0.2,0.4c0,0.3,0,0.5-0.1,0.8c-0.1,0.2-0.1,0.4-0.1,0.6c0,0.3,0,0.6,0,0.9c0,0.1,0,0.2,0,0.3
	c0.2,0.3,0.2,0.7,0.2,1c0,0.2,0,0.5,0.2,0.6c0,0,0,0.1,0,0.1c0,0.2,0.1,0.5,0.3,0.6c0.1,0.2,0.3,0.3,0.4,0.5c0.4,0.3,0.7,0.7,1.1,1
	s0.5,0.5,0.8,0.5c0,0,0.1,0,0.1,0.1c0.3,0.2,0.7,0.4,1.1,0.5c0.3,0,0.5,0,0.8,0.1c0.1,0.1,0.3,0.1,0.5,0.2l0.9,0.1
	c0.1,0,0.2,0,0.3,0.1s0.2,0.1,0.4,0.1h2c0.6,0,1.2,0,1.9,0c0.2,0,0.4,0,0.6-0.2s0.2-0.1,0.3-0.1h0.6c0.2,0,0.3,0,0.5-0.1
	c0.1-0.1,0.3-0.2,0.5-0.2c0.5,0,0.8-0.3,1.3-0.4c0,0,0.1,0,0.1-0.1c0.2-0.2,0.4-0.5,0.8-0.5c0,0,0.1,0,0.1-0.1
	c0.2-0.2,0.4-0.3,0.6-0.5s0.3-0.3,0.4-0.6c0.1-0.2,0.2-0.5,0.4-0.6c0.1-0.1,0.2-0.3,0.2-0.4c0-0.2,0-0.5,0-0.7
	C41.9,28.9,41.8,28.9,41.5,28.8z" style="fill: white;"/>
<path d="M96.5,29.8c-0.3-0.3-0.6-0.6-1-0.7c-0.2-0.1-0.4-0.3-0.7-0.3c0,0,0,0-0.1,0c-0.1-0.2-0.3-0.2-0.5-0.2h-0.8
	c-0.1,0-0.2,0-0.3-0.1s-0.3-0.2-0.4-0.2h-2.1c-0.1,0-0.3,0-0.3-0.1s-0.3-0.2-0.5-0.2h-2.3c-0.2,0-0.4,0-0.6-0.1
	c-0.1-0.1-0.2-0.2-0.4-0.2c-0.2,0-0.3-0.2-0.3-0.3c0-0.2,0-0.4,0-0.6c0-0.2,0.1-0.3,0.3-0.3c0.1,0,0.3-0.1,0.3-0.2
	c0-0.1,0.2-0.1,0.3-0.1c0.3,0,0.6-0.1,0.9-0.1c1.3,0,2.7-0.1,4,0.1c0.2,0,0.5,0,0.6,0.2c0,0,0.1,0,0.1,0.1c0.3,0.1,0.6,0.2,0.8,0.5
	c0.3,0.3,0.6,0.5,1,0.6c0.5,0.2,1.1,0,1.5-0.4c0.1-0.2,0.2-0.4,0.1-0.6c-0.2-0.2-0.4-0.5-0.6-0.7s-0.6-0.5-0.9-0.9
	c-0.4,0-0.6-0.4-1-0.4h-0.5c-0.1,0-0.2,0-0.3-0.1s-0.2-0.1-0.4-0.2c-0.4,0-0.7,0-1.1-0.1c-0.1,0-0.2,0-0.3-0.1
	c-0.1-0.1-0.3-0.1-0.4-0.1h-2.2c-0.1,0-0.2,0-0.3,0.1c-0.1,0.1-0.3,0.1-0.4,0.1c-0.3,0.1-0.6,0.1-0.9,0.1c-0.1,0-0.2,0-0.3,0.1
	s-0.4,0.2-0.6,0.2s-0.3,0-0.4,0.1s-0.3,0.2-0.4,0.2c-0.1,0-0.2,0-0.2,0.1c0,0.1-0.1,0.1-0.2,0.1c-0.3,0-0.5,0.3-0.8,0.6
	s-0.3,0.2-0.3,0.4s0.1,0.7-0.2,1c0,0,0,0,0,0.1c0.2,0.2,0.1,0.4,0.1,0.7s0,0.2,0.1,0.3c0.3,0.2,0.5,0.5,0.8,0.7
	c0.3,0.2,0.7,0.4,1.1,0.5c0.3,0,0.5,0,0.8,0.1c0.3,0.1,0.6,0.2,0.9,0.2c0.3,0,0.6,0,0.8,0c0.1,0,0.2,0,0.3,0.1s0.3,0.2,0.5,0.2
	c0.9,0,1.9,0,2.9,0c0.1,0,0.3,0,0.4,0.1s0.3,0.2,0.5,0.2c0.4,0,0.9-0.1,1.2,0.3c0.1,0.1,0.1,0.2,0.2,0.3c0,0.2,0,0.4,0,0.6
	c0,0.2-0.1,0.4-0.4,0.4c-0.1,0-0.2,0-0.2,0.1s-0.3,0.2-0.5,0.2c-1.9,0.1-3.8,0-5.8,0c-0.3,0-0.6-0.2-0.9-0.4
	c-0.2-0.2-0.4-0.5-0.7-0.6c0,0-0.1,0-0.1-0.1c-0.3-0.3-0.6-0.3-0.9-0.4c-0.1,0-0.3,0-0.3,0.1C84.2,31,84.1,31,84,31
	c-0.2,0-0.4,0.1-0.5,0.3c-0.2,0.2-0.2,0.4,0,0.6c0,0,0,0,0,0c0,0,0.1,0.1,0.1,0.1c0,0.2,0.1,0.4,0.3,0.5c0.3,0.4,0.7,0.7,1.1,0.9
	c0.1,0,0.1,0,0.1,0.1c0.1,0.2,0.3,0.2,0.5,0.2s0.3-0.1,0.4,0.1c0.1,0.1,0.3,0.2,0.5,0.2h0.9c0.1,0,0.2,0,0.3,0.1s0.3,0.1,0.4,0.1h2
	c0.7,0,1.3,0,2,0c0.1,0,0.2,0,0.3,0c0.2-0.3,0.5-0.2,0.8-0.2s0.7,0.1,0.9-0.2c0,0,0,0,0.1,0c0.3,0,0.6-0.1,0.9-0.3L96,33
	c0.2-0.1,0.2-0.3,0.3-0.4s0.1-0.2,0.2-0.3c0.1-0.7,0.1-1.4,0-2.1C96.6,30.1,96.6,29.9,96.5,29.8z" style="fill: white;"/>
<path d="M158.4,28.1c0,0,0-0.1,0-0.2c0-0.4-0.1-0.8-0.3-1.1c-0.2-0.3-0.4-0.6-0.6-0.9c-0.1-0.1-0.3-0.3-0.4-0.4
	c-0.3-0.3-0.6-0.7-1.1-0.7c0,0-0.1,0-0.1-0.1c-0.1-0.2-0.3-0.2-0.5-0.2h-0.6c-0.1,0-0.2,0-0.3-0.1s-0.3-0.2-0.5-0.2h-7.1
	c-0.1,0-0.3,0-0.4,0.1s-0.3,0.2-0.4,0.2c-0.3,0-0.3,0-0.4,0.4c0,0.1,0,0.3-0.1,0.4c-0.1,0.1-0.2,0.2-0.1,0.4v7.1c0,0.1,0,0.2,0,0.3
	c0.2,0.1,0.3,0.4,0.2,0.6c0,0.2,0.1,0.3,0.3,0.3c0,0,0,0,0.1,0c0.1,0,0.3,0,0.4,0.1s0.3,0.2,0.4,0.2h6.1c0.1,0,0.3,0.1,0.4-0.1
	s0.3-0.2,0.5-0.2h0.7c0.1,0,0.2,0,0.3-0.1s0.3-0.2,0.4-0.2s0.4,0,0.5-0.1c0.2-0.3,0.6-0.2,0.8-0.5c0.2-0.1,0.5-0.2,0.6-0.4
	c0.1-0.2,0.4-0.3,0.4-0.5s0.4-0.6,0.4-0.9c0,0,0.1-0.1,0.1-0.1c0.1-0.1,0.2-0.3,0.2-0.5c0-0.2,0-0.4,0-0.7s0-0.2,0-0.2
	c0.3-0.2,0.2-0.5,0.2-0.8S158.7,28.4,158.4,28.1z M156.1,30.2c-0.1,0.4-0.3,0.8-0.7,1.1l-0.5,0.4c-0.1,0.1-0.2,0.2-0.4,0.2
	c-0.1,0-0.3,0.1-0.4,0.2c-0.1,0.1-0.2,0.1-0.4,0.1c-0.9,0-1.9,0-2.8,0h-2.7c-0.4,0-0.7-0.2-0.8-0.6c0,0,0-0.1,0-0.1
	c0-1.5,0-3.1,0-4.6c0-0.4,0.3-0.7,0.7-0.8c0.2,0,0.4,0,0.6,0c1.1,0,2.3,0,3.4,0c0.4,0,0.9,0.1,1.4,0.1c0.1,0,0.2,0,0.3,0.1
	c0.1,0.1,0.2,0.2,0.3,0.1c0.4,0,0.8,0.2,1,0.5c0.2,0.2,0.5,0.5,0.7,0.7c0.1,0.1,0.1,0.3,0.2,0.4C156.2,28.7,156.2,29.5,156.1,30.2z"
	style="fill: white;"/>
<path d="M118.5,9.1c-0.2-0.1-0.2-0.3-0.2-0.5s0-0.3-0.1-0.4s-0.4-0.5-0.7-0.7s-0.5-0.5-0.7-0.7s-0.5-0.5-0.9-0.5c0,0-0.1,0-0.1-0.1
	c-0.1-0.2-0.2-0.2-0.4-0.2s-0.2,0-0.2-0.1s-0.3-0.2-0.5-0.2s-0.7,0-0.9-0.2c0,0-0.1,0-0.1,0l-0.9-0.1c-0.1,0-0.3,0-0.4-0.1
	c-0.2-0.1-0.4-0.2-0.7-0.2h-1.1c-0.1,0-0.2,0-0.3,0.1c-0.1,0.1-0.3,0.2-0.5,0.2c-0.3,0-0.7,0-1,0.1c-0.4,0.1-0.9,0.2-1.3,0.3
	c-0.1,0-0.1,0-0.2,0.1C107.3,6,107.1,6,107,6s-0.2,0-0.2,0.1s-0.3,0.2-0.5,0.2s-0.1,0-0.2,0.1s-0.3,0.2-0.4,0.4
	c-0.1,0.1-0.2,0.3-0.4,0.4c-0.2,0.1-0.4,0.3-0.5,0.5c-0.1,0.2-0.2,0.5-0.3,0.6c-0.2,0.2-0.3,0.5-0.3,0.8c0,0.2,0,0.4-0.2,0.6
	c0,0-0.1,0.1-0.1,0.1V11c0,0,0,0.1,0.1,0.1c0.2,0.2,0.2,0.4,0.2,0.6c0,0.3,0.1,0.5,0.3,0.7c0.1,0.1,0.3,0.3,0.4,0.5
	c0.2,0.5,0.6,0.8,1.1,1c0,0,0.1,0,0.1,0c0.3,0.3,0.6,0.5,0.9,0.6c0.2,0.1,0.4,0.2,0.6,0.3c0.3,0.2,0.6,0.3,1,0.3
	c0.2,0,0.5,0,0.7,0.2c0.1,0.1,0.2,0.1,0.2,0.1h4.1c0.1,0,0.2,0,0.2,0c0.2-0.3,0.5-0.2,0.8-0.2c0.2,0,0.4,0,0.6-0.1
	c0.4-0.2,0.8-0.4,1.2-0.6c0,0,0.1,0,0.1,0c0.2-0.3,0.5-0.5,0.8-0.7c0.3-0.2,0.5-0.5,0.7-0.7c0.2-0.2,0.4-0.4,0.4-0.7
	c0-0.2,0-0.4,0.2-0.6c0.1,0,0.1-0.2,0.1-0.2c0-0.7,0-1.4,0-2.1C118.5,9.2,118.5,9.1,118.5,9.1z M116.3,11.2c0,0-0.1,0.1-0.1,0.1
	c0,0.4-0.3,0.5-0.5,0.8c-0.1,0.1-0.2,0.3-0.4,0.4c-0.2,0.2-0.5,0.3-0.7,0.5c-0.4,0.2-0.8,0.3-1.3,0.3c0,0-0.1,0-0.1,0
	c-0.1,0.2-0.4,0.2-0.6,0.2h-2.3c-0.2,0-0.4,0-0.6-0.2s-0.2-0.1-0.3-0.1h-0.6c-0.1,0-0.2,0-0.3-0.1c0-0.1-0.1-0.1-0.2-0.1
	c-0.3,0-0.5-0.3-0.9-0.4c-0.1,0-0.2-0.2-0.3-0.3c-0.4-0.3-0.8-0.7-0.8-1.2c0-0.1,0-0.2-0.1-0.2c-0.2-0.3-0.2-0.7,0-0.9
	c0-0.1,0.1-0.1,0.1-0.2c0-0.5,0.3-0.9,0.7-1.2c0.2-0.2,0.5-0.4,0.7-0.6c0,0,0.1,0,0.2,0c0.1,0,0.3-0.1,0.4-0.2
	c0.1-0.2,0.3-0.1,0.5-0.2c0.3,0,0.5-0.1,0.8-0.2c0.2-0.1,0.5-0.1,0.8-0.1c0.9-0.1,1.8-0.1,2.7,0c0.1,0,0.3,0,0.4,0.1
	c0.1,0.1,0.2,0.1,0.4,0.1s0.5,0,0.6,0.3c0,0,0.1,0,0.1,0c0.4,0.1,0.8,0.4,1.1,0.8c0.1,0.2,0.3,0.3,0.4,0.4c0.1,0.1,0.1,0.2,0.1,0.2
	c0,0.2,0,0.3,0.2,0.4s0.1,0.2,0.1,0.3s0,0.5,0,0.7S116.5,11.1,116.3,11.2L116.3,11.2z" style="fill: white;"/>
<path d="M97,11.4c-0.1,0-0.3-0.1-0.4-0.2c-0.2-0.2-0.4-0.2-0.6,0c-0.1,0.1-0.1,0.1-0.2,0.1c-0.5,0.1-0.7,0.5-1,0.8
	c-0.3,0.4-0.7,0.7-1.2,0.8c-0.1,0-0.2,0-0.3,0.1s-0.3,0.2-0.4,0.2h-4.3c-0.1,0-0.3,0-0.3,0C88,13,87.7,13,87.4,12.9
	c-0.1,0-0.1-0.1-0.2-0.1c-0.2-0.1-0.4-0.4-0.6-0.5c-0.1-0.1-0.2-0.1-0.3-0.2c-0.2-0.1-0.3-0.4-0.4-0.6c0-0.1-0.2-0.1-0.2-0.3
	c0-0.2-0.1-0.5-0.2-0.6c0,0,0-0.1,0-0.1c0-0.2-0.1-0.5,0.2-0.7c0.1,0,0.1-0.2,0.1-0.2C85.6,9.2,85.8,9,86,8.7
	c0.4-0.4,0.8-0.7,1.3-0.9c0.1-0.1,0.3,0,0.4-0.1c0.1-0.1,0.3-0.2,0.5-0.2c0.4,0,0.9-0.1,1.3-0.2c0.6-0.1,1.2-0.1,1.8,0
	c0,0,0.1,0,0.1,0c0.2,0.2,0.4,0.2,0.7,0.2c0.6-0.1,1.1,0.4,1.6,0.4l0,0c0.2,0.3,0.6,0.5,0.9,0.6c0.1,0,0.1,0.1,0.1,0.1
	c0.1,0.5,0.6,0.5,0.9,0.7c0.1,0.1,0.4,0.1,0.6,0.2s0.9-0.2,1-0.4c0.1-0.3,0.1-0.7-0.1-1c-0.2-0.3-0.2-0.6-0.5-0.8s-0.5-0.7-1-0.8
	c0,0-0.1,0-0.1,0C95.3,6.2,95,6,94.6,6c0,0-0.1,0-0.1-0.1c-0.1-0.2-0.3-0.2-0.4-0.2c-0.3,0-0.5-0.1-0.8-0.1
	c-0.2-0.1-0.4-0.2-0.6-0.2c-0.4,0-0.7,0-1.1-0.1c-0.3-0.1-0.7-0.2-1-0.2c-0.4,0-0.9-0.1-1.3,0.2c0,0-0.1,0-0.2,0l-1.1,0.1
	c-0.1,0-0.2,0-0.3,0.1c-0.1,0.1-0.3,0.1-0.4,0.1c-0.2,0-0.6,0-0.7,0.1S86,5.9,85.8,6.2c-0.3,0-0.5,0.1-0.6,0.3
	C85,6.7,84.8,6.8,84.7,7s-0.5,0.5-0.8,0.8c-0.3,0.2-0.4,0.5-0.4,0.9c0,0.2,0,0.5-0.2,0.7c-0.1,0.1,0,0.2,0,0.2v1.6
	c0,0.1,0,0.2,0.1,0.2s0.2,0.4,0.2,0.6s0,0.4,0.1,0.5c0.2,0.3,0.4,0.5,0.7,0.8c0.3,0.2,0.5,0.4,0.8,0.7c0.3,0.3,0.7,0.6,1.1,0.7
	c0.4,0.2,0.8,0.2,1.2,0.4c0.2,0,0.5,0.1,0.7,0.1c0.1,0,0.2,0,0.3,0.1s0.3,0.1,0.5,0.2c1.3,0,2.6,0.1,3.8,0c0.2,0,0.4,0,0.6-0.2
	s0.2-0.1,0.3-0.1s0.5,0,0.7-0.1c0.1,0,0.3,0,0.4-0.1c0.3-0.2,0.6-0.3,0.9-0.4c0.2-0.1,0.5-0.3,0.7-0.5c0.2-0.2,0.5-0.5,0.7-0.7
	c0.3-0.3,0.5-0.6,0.6-1c0-0.1,0-0.2,0-0.2c0.2-0.2,0-0.3-0.1-0.5C97.3,11.5,97.2,11.4,97,11.4z" style="fill: white;"/>
<path d="M166.5,14.8c0-0.2,0-0.4,0.1-0.5c0.1-0.2,0.2-0.3,0.1-0.5v-3.4c0-0.8,0-1.7,0-2.5c0-0.7,0-1.3-0.3-1.9
	c0-0.1-0.1-0.3-0.3-0.3c-0.4-0.1-0.8-0.1-1.2,0c-0.4,0-0.4,0.1-0.4,0.4c0,0.1,0,0.3-0.1,0.4s-0.2,0.3-0.2,0.5v3.7c0,0.2,0,0.4,0,0.6
	c0,0.1,0,0.2-0.1,0.2c-0.3,0.1-0.7,0.1-1-0.1c-0.3-0.3-0.7-0.6-1.2-0.9c0,0-0.1-0.1-0.1-0.1c-0.2-0.3-0.5-0.5-0.7-0.8
	s-0.8-0.8-1.2-1.1c-0.1-0.1-0.3-0.3-0.4-0.3c-0.4-0.1-0.5-0.4-0.7-0.6s-0.5-0.5-0.7-0.7s-0.5-0.5-0.8-0.8c-0.2-0.3-0.6-0.5-0.9-0.5
	c-0.2,0-0.4,0-0.6-0.1c-0.2-0.1-0.4-0.1-0.6,0c-0.3,0.3-0.5,0.5-0.7,0.9l0,0c-0.2,0.2-0.1,0.4-0.1,0.7c0,1.9,0,3.9,0,5.8
	c0,0.7,0.1,1.4,0.3,2c0,0.1,0.2,0.3,0.3,0.3c0.3,0,0.6,0,0.8,0c0.2,0,0.3-0.1,0.4-0.4s0-0.4,0.1-0.5c0.1-0.1,0.2-0.3,0.1-0.5
	c0-0.8,0-1.7,0-2.5c0-0.6,0-1.2,0.1-1.9c0-0.2,0-0.3,0.2-0.4s0.5-0.1,0.7,0.1s0.5,0.3,0.7,0.5c0.4,0.4,0.8,0.7,1.2,1.1
	c0.1,0.2,0.3,0.3,0.5,0.4c0.2,0.1,0.5,0.3,0.6,0.5c0.2,0.3,0.5,0.5,0.8,0.8c0.3,0.4,0.7,0.7,1.1,1c0.1,0.1,0.1,0.2,0.2,0.2
	c0.3,0,0.5,0.2,0.6,0.4c0.2,0.3,0.4,0.5,0.7,0.7c0.2,0.3,0.5,0.4,0.9,0.4c0.1,0,0.2,0,0.3,0.1c0.3,0.1,0.6,0.1,0.9,0
	c0.1-0.1,0.2-0.2,0.4-0.2C166.5,15.1,166.5,15,166.5,14.8z" style="fill: white;"/>
<path d="M137.1,25.4c-0.2-0.1-0.2-0.4-0.2-0.6c0-0.2-0.1-0.3-0.4-0.3c-0.4,0-0.8,0-1.2,0c-0.2,0-0.3,0.1-0.3,0.3c0,0,0,0,0,0.1
	c0,0.1,0,0.3-0.1,0.4s-0.2,0.3-0.2,0.5c0,1.2,0,2.4,0,3.7c0,0.2,0,0.4,0,0.6c0,0.1,0,0.2-0.1,0.2c-0.3,0.1-0.5,0.1-0.8,0
	c-0.1-0.2-0.2-0.2-0.4-0.2c-0.2,0-0.2-0.3-0.4-0.4s-0.2-0.2-0.3-0.3c-0.3-0.2-0.6-0.4-0.9-0.7c-0.4-0.3-0.7-0.6-1-1
	c-0.3-0.4-0.7-0.7-1.1-1c-0.1-0.1-0.2-0.3-0.3-0.3c-0.3,0-0.4-0.2-0.6-0.4c-0.1-0.1-0.2-0.2-0.2-0.3c-0.3-0.3-0.6-0.6-0.9-0.8
	c-0.3-0.3-0.4-0.5-0.8-0.4c-0.2,0-0.3,0-0.4-0.1c-0.3-0.2-0.6-0.2-0.9,0c-0.1,0.1-0.2,0.2-0.4,0.2c-0.2,0-0.3,0.1-0.3,0.3
	c0,0.2,0,0.3-0.1,0.5c-0.1,0.2-0.2,0.4-0.1,0.6c0,2.1,0,4.1,0,6.1c0,0.6,0.1,1.2,0.3,1.7c0,0.2,0.2,0.3,0.3,0.3c0.3,0,0.6,0,0.9,0
	c0.2,0,0.3-0.1,0.3-0.3c0-0.1,0-0.3,0.1-0.4c0.1-0.2,0.2-0.4,0.1-0.6c0-1.3,0-2.6,0-3.9c0-0.2,0-0.4,0.1-0.6c0-0.1,0.1-0.2,0.1-0.2
	c0.3-0.1,0.6-0.1,0.8,0.1c0.1,0.1,0.2,0.1,0.2,0.1c0.1,0,0.2,0,0.3,0.1c0.2,0.3,0.5,0.5,0.8,0.7c0.2,0.2,0.4,0.4,0.6,0.4
	c0,0,0.1,0,0.1,0.1c0.4,0.4,0.8,0.8,1.2,1.2c0.4,0.5,0.9,0.9,1.4,1.2c0.2,0.1,0.3,0.2,0.4,0.4c0.2,0.3,0.5,0.6,0.8,0.8
	c0.3,0.3,0.6,0.5,0.8,0.8c0.1,0.1,0.2,0.1,0.3,0.1c0.2,0,0.3,0,0.5,0c0.2,0,0.3,0,0.4,0.2c0.1,0.1,0.3,0.1,0.4,0c0,0,0,0,0,0
	c0.1-0.1,0.3-0.2,0.5-0.2c0.3,0,0.3-0.1,0.3-0.4c0-0.1,0-0.3,0.1-0.4s0.2-0.3,0.2-0.5v-7C137.2,25.7,137.2,25.5,137.1,25.4z" style="fill: white;"/>
<path d="M206.5,29.3v-3.5c0-0.1,0-0.3,0-0.4c-0.2-0.2-0.2-0.4-0.2-0.6c0-0.2-0.1-0.3-0.3-0.3c-0.3,0-0.6,0-0.9,0
	c-0.3,0-0.3,0-0.4,0.4c0,0.1,0,0.3-0.1,0.4s-0.2,0.3-0.2,0.5c0,1.2,0,2.3,0,3.5c0,0.2,0,0.5,0,0.7s-0.3,0.4-0.4,0.6s-0.2,0-0.2,0
	s-0.3-0.2-0.4-0.2c-0.1,0-0.1,0-0.2-0.1c-0.1-0.1-0.2-0.2-0.3-0.2s-0.2,0-0.2-0.1c-0.2-0.3-0.4-0.5-0.7-0.7
	c-0.2-0.3-0.4-0.5-0.7-0.7c-0.3-0.2-0.5-0.5-0.8-0.7c-0.2-0.2-0.4-0.4-0.7-0.5c-0.2-0.1-0.4-0.3-0.5-0.4c-0.3-0.3-0.6-0.5-0.8-0.8
	c-0.2-0.2-0.5-0.5-0.7-0.7c-0.2-0.2-0.4-0.5-0.8-0.5c-0.1,0-0.1-0.1-0.2-0.1c0-0.1-0.1-0.1-0.2-0.1c-0.3,0-0.7-0.1-1-0.2
	c-0.4-0.2-0.8,0.2-1.2,0.3c-0.1,0-0.1,0.2-0.1,0.3s0,0.2-0.1,0.3c-0.1,0.2-0.2,0.4-0.1,0.6c0,2,0,4,0,6.1c0,0.6,0.1,1.2,0.3,1.8
	c0,0.2,0.2,0.3,0.3,0.3c0.4,0,0.8,0,1.2,0c0.2,0,0.3-0.1,0.3-0.3c0,0,0,0,0,0c0-0.1,0-0.3,0.1-0.4c0.1-0.2,0.2-0.4,0.1-0.6
	c0-1.2,0-2.4,0-3.6c0-0.2,0-0.4,0-0.6c0.1-0.3,0.4-0.5,0.7-0.6c0.1,0,0.2,0,0.2,0.1s0.3,0.2,0.4,0.2c0.1,0,0.1,0.1,0.2,0.1
	c0.2,0.2,0.4,0.4,0.6,0.6s0.3,0.2,0.4,0.4c0.3,0.4,0.7,0.7,1.1,1c0.1,0.1,0.1,0.3,0.3,0.3s0.5,0.3,0.7,0.5s0.5,0.5,0.8,0.7
	s0.5,0.4,0.8,0.7c0.2,0.2,0.4,0.4,0.7,0.6c0.1,0,0.1,0.1,0.2,0.1c0.4,0.3,0.7,0.8,1.3,0.8c0.1,0,0.2,0.1,0.3,0.2
	c0.1,0.1,0.3,0.1,0.4,0c0,0,0,0,0,0c0.1-0.1,0.3-0.2,0.4-0.2c0.3,0,0.3-0.1,0.3-0.4c0-0.1,0-0.3,0.1-0.4s0.2-0.3,0.2-0.5L206.5,29.3
	z" style="fill: white;"/>
<path d="M116.8,32.3c-0.1-0.1-0.1-0.4-0.3-0.5c-0.2-0.3-0.4-0.6-0.6-0.9c-0.3-0.3-0.3-0.6-0.6-0.9s-0.4-0.6-0.6-0.9s-0.4-0.7-0.6-1
	c-0.1-0.2-0.3-0.4-0.4-0.6c-0.2-0.3-0.5-0.5-0.6-0.9c0,0,0,0,0-0.1c-0.2-0.1-0.2-0.2-0.2-0.4s-0.1-0.1-0.2-0.2
	c-0.2-0.2-0.3-0.4-0.5-0.7c-0.1-0.3-0.4-0.6-0.8-0.6c-0.2,0-0.3,0-0.4-0.2c0-0.1-0.1-0.1-0.2-0.1H110c-0.1,0-0.2,0-0.3,0.1
	c-0.1,0.1-0.2,0.1-0.4,0.2s-0.2,0-0.2,0.1c-0.2,0.3-0.5,0.5-0.8,0.8s-0.2,0.6-0.5,0.7c0,0.2-0.3,0.2-0.3,0.4s-0.2,0.5-0.4,0.7
	c-0.2,0.3-0.4,0.5-0.6,0.8c-0.2,0.2-0.2,0.5-0.4,0.6c-0.3,0.3-0.5,0.7-0.8,1.1c-0.1,0.1-0.3,0.2-0.3,0.4c-0.1,0.5-0.6,0.8-0.8,1.3
	s-0.5,0.5-0.6,0.9c0,0.1-0.1,0.1-0.1,0.1c-0.1,0.2-0.4,0.4-0.5,0.7c0,0.1-0.1,0.2-0.2,0.3c-0.2,0.3-0.1,0.5,0.3,0.6s0.5-0.1,0.7,0.1
	c0,0,0.1,0,0.1,0c0.1-0.1,0.1-0.1,0.2-0.1c0.3,0,0.6-0.1,0.8-0.4c0.3-0.4,0.6-0.7,0.9-1.1c0.2-0.3,0.5-0.4,0.9-0.4
	c1.1,0,2.2,0,3.3,0h2.9c0.3,0,0.5,0,0.8,0s0.2,0,0.3,0.1s0.4,0.3,0.4,0.6c0,0,0,0,0,0.1c0.2,0.1,0.3,0.4,0.5,0.6s0.3,0.4,0.6,0.4
	c0.5,0.1,0.9,0.1,1.4,0c0.1,0,0.2-0.1,0.2-0.2c0.1-0.3,0-0.6-0.2-0.8C117,32.8,117,32.6,116.8,32.3z M112,30.1h-0.3h-1.5l0,0h-1.6
	c-0.4,0-0.4-0.1-0.4-0.4c0-0.3,0.1-0.6,0.2-0.8c0.2-0.2,0.4-0.4,0.4-0.7c0-0.2,0.2-0.3,0.3-0.5c0.3-0.3,0.6-0.6,0.9-0.8
	c0.1-0.1,0.3-0.1,0.4,0c0.1,0.2,0.4,0.2,0.4,0.4s0.2,0.3,0.4,0.4c0.1,0.1,0.2,0.2,0.2,0.4c0,0.2,0.3,0.3,0.4,0.5
	c0.1,0.1,0.1,0.2,0.2,0.3c0,0.2,0.1,0.5,0.2,0.7C112.5,29.6,112.2,30,112,30.1z" style="fill: white;"/>
<path d="M126,14.2c0.2,0.1,0.2,0.4,0.2,0.6s0.1,0.3,0.4,0.4c0.1,0,0.2,0,0.3,0.1s0.3,0.2,0.5,0.2h7.8c0.1,0,0.3,0,0.4-0.1
	c0.1-0.1,0.3-0.2,0.4-0.2c0.2,0,0.3-0.1,0.3-0.3c0,0,0,0,0,0c0-0.3,0-0.6,0-0.9c0-0.2-0.1-0.3-0.3-0.3s-0.3,0-0.4-0.1
	s-0.3-0.2-0.5-0.2h-3.5c-0.8,0-1.7,0-2.5,0c-0.4,0-0.7-0.3-0.8-0.6c0,0,0,0,0-0.1c0-0.2,0-0.4,0-0.6c0-1.4,0-2.7,0-4.1
	c0-0.3,0-0.7,0-1s-0.3-0.6-0.3-1c0-0.2-0.1-0.3-0.3-0.3c-0.4-0.1-0.8-0.1-1.1,0c-0.4,0-0.4,0.1-0.4,0.5c0,0.1,0,0.3-0.1,0.4
	c-0.1,0.1-0.2,0.2-0.1,0.4v7.1C125.9,14,125.9,14.1,126,14.2z" style="fill: white;"/>
<path d="M175.6,32.4c-0.1,0-0.1,0-0.2-0.1c-0.1-0.2-0.4-0.2-0.6-0.2h-5.5h-0.8c-0.1,0-0.2,0-0.2-0.1c-0.2-0.2-0.4-0.5-0.4-0.8
	c0-0.2,0-0.4,0-0.6v-4.9c0-0.1,0.1-0.3,0-0.4c-0.2-0.1-0.2-0.4-0.2-0.6c0-0.2-0.1-0.3-0.3-0.3c0,0,0,0-0.1,0c-0.3,0-0.6,0-0.9,0
	c-0.3,0-0.3,0.1-0.4,0.4s0,0.3-0.1,0.4s-0.1,0.2-0.1,0.4v7.1c0,0.1,0,0.2,0,0.3s0.2,0.4,0.2,0.6c0,0.2,0.1,0.3,0.3,0.3
	c0,0,0,0,0.1,0c0.1,0,0.3,0,0.3,0.1s0.3,0.2,0.5,0.2h3.7c1.3,0,2.5,0,3.8,0c0.1,0,0.3,0.1,0.4-0.1c0.1-0.1,0.2-0.2,0.4-0.2
	c0.2,0,0.2-0.1,0.3-0.3c0-0.3,0-0.5,0-0.8C176,32.6,176,32.6,175.6,32.4z" style="fill: white;"/>
<path d="M145.8,14.7c0-0.2,0-0.4,0.1-0.5c0.1-0.1,0.2-0.2,0.1-0.4v-7c0-0.1,0-0.2,0-0.3s-0.2-0.4-0.2-0.6c0-0.2-0.1-0.3-0.3-0.3
	c-0.4-0.1-0.8-0.1-1.1,0c-0.3,0-0.4,0.1-0.4,0.4c0,0.1,0,0.3-0.1,0.4s-0.2,0.3-0.2,0.5v6.9c0,0.1,0,0.3,0.1,0.4s0.2,0.4,0.2,0.6
	s0.1,0.4,0.4,0.4c0.4,0,0.7,0,1.1,0C145.7,15.1,145.7,15.1,145.8,14.7z" style="fill: white;"/>
<path d="M185.5,24.9c-0.1-0.2-0.1-0.3-0.3-0.3c-0.4,0-0.8,0-1.2,0c-0.1,0-0.3,0.1-0.3,0.2c0,0.2,0,0.3-0.1,0.5
	c-0.1,0.2-0.1,0.4-0.1,0.6v3.4c0,0.9,0,1.9,0,2.8c0,0.6,0.1,1.2,0.2,1.7c0,0.2,0.2,0.3,0.3,0.3c0.4,0,0.8,0,1.2,0
	c0.2,0,0.3-0.1,0.3-0.3c0,0,0,0,0,0c0-0.1,0-0.3,0.1-0.4c0.1-0.2,0.2-0.4,0.1-0.7c0-2,0-4,0-5.9C185.8,26.1,185.7,25.5,185.5,24.9z"
	style="fill: white;"/>
<path d="M24.5,7.8c0,0.3,0.1,0.6,0.3,0.7c0.2,0.1,0.3,0.4,0.5,0.4s0.3,0,0.3-0.1s0.2-0.4,0.3-0.7l0,0c-0.1-0.1-0.2-0.3-0.2-0.5
	c0-0.6-0.4-0.8-0.7-1.1c-0.1-0.1-0.4,0-0.5,0.1c0,0.1-0.1,0.1-0.1,0.2c-0.2,0.2-0.2,0.5-0.1,0.7C24.4,7.6,24.5,7.7,24.5,7.8z" style="fill: white;"/>
<path d="M40.9,8.3c0.2,0,0.5,0.1,0.7,0S42,8,42,7.7c0-0.1,0-0.1,0.1-0.2c0.1-0.1,0.2-0.3,0.2-0.5c0-0.4-0.3-0.7-0.7-0.8
	c-0.1,0-0.2,0-0.3,0c0,0-0.1,0-0.1,0.1c0,0.2-0.2,0.4-0.3,0.7c-0.1,0.3-0.1,0.7,0,1C40.7,8.1,40.7,8.3,40.9,8.3z" style="fill: white;"/>
<path d="M10.7,15.9c0.1,0.4,0.3,0.6,0.7,0.7c0.1,0,0.2,0,0.2,0.1c0.2,0.2,0.3,0.1,0.5,0s0.1-0.4,0.2-0.6c0-0.2,0-0.6-0.3-0.8
	s-0.5-0.3-0.7-0.4c-0.2-0.1-0.4-0.1-0.5,0.1c0,0,0,0,0,0.1c0,0-0.1,0.1-0.1,0.1c-0.2,0.1-0.2,0.4-0.1,0.5c0,0,0,0,0.1,0.1
	C10.7,15.8,10.7,15.8,10.7,15.9z" style="fill: white;"/>
<path d="M55.4,16.3c0.3,0,0.5-0.3,0.8-0.4c0,0,0-0.1,0-0.1c0-0.2,0.1-0.3,0.2-0.4c0-0.1,0-0.1,0-0.2c0-0.3-0.2-0.6-0.5-0.7
	c0,0-0.1,0-0.1,0c-0.1,0-0.2,0-0.3,0c-0.2,0.2-0.6,0.2-0.7,0.7c0,0,0,0.1-0.1,0.1c-0.2,0.1-0.2,0.3-0.2,0.5c0,0,0,0,0,0
	C54.9,16,55.1,16.3,55.4,16.3z" style="fill: white;"/>
</svg>
